<?xml version="1.0" standalone="no"?>
<!DOCTYPE svg PUBLIC "-//W3C//DTD SVG 20010904//EN"
 "http://www.w3.org/TR/2001/REC-SVG-20010904/DTD/svg10.dtd">
<svg version="1.0" xmlns="http://www.w3.org/2000/svg"
 width="7730.000000pt" height="7730.000000pt" viewBox="0 0 7730.000000 7730.000000"
 preserveAspectRatio="xMidYMid meet">

<g transform="translate(0.000000,7730.000000) scale(0.100000,-0.100000)"
fill="#000000" stroke="none">
<path d="M29940 63464 c-703 -39 -1284 -190 -1881 -489 -895 -449 -1641 -1207
-2074 -2110 -390 -812 -531 -1685 -419 -2595 58 -476 218 -1004 439 -1447 512
-1032 1384 -1830 2455 -2248 596 -233 1256 -339 1891 -306 125 7 237 14 250
16 13 2 67 9 119 15 750 90 1513 395 2135 854 513 378 963 882 1276 1431 334
585 538 1257 590 1945 15 198 6 657 -16 845 -124 1055 -575 1993 -1315 2736
-761 763 -1749 1231 -2815 1334 -153 14 -518 26 -635 19z m1545 -2293 c51 -23
101 -79 114 -128 16 -57 15 -1003 -1 -1057 -16 -53 -84 -121 -134 -135 -53
-15 -1564 -15 -1617 0 -49 13 -105 63 -128 114 -17 37 -19 78 -19 548 0 554
-1 548 58 611 15 16 45 37 67 47 38 18 82 19 830 19 743 0 792 -2 830 -19z
m-938 -1452 c30 -11 88 -62 106 -94 9 -14 13 -158 17 -490 l5 -470 57 -3 57
-3 3 470 3 469 30 44 c17 23 49 53 70 65 l40 23 811 0 810 0 48 -30 c35 -23
53 -44 71 -83 22 -46 25 -66 25 -174 l0 -122 458 -3 457 -3 50 -27 c58 -30
123 -96 157 -160 20 -37 23 -58 23 -143 0 -88 -3 -106 -25 -146 -14 -26 -270
-448 -570 -940 -613 -1005 -602 -990 -762 -1069 -154 -76 22 -71 -2396 -68
l-2167 3 -70 24 c-140 47 -268 128 -343 219 -22 26 -210 295 -418 597 -259
377 -384 567 -397 605 -26 75 -20 176 16 245 31 61 102 129 165 158 46 22 58
22 742 28 382 4 797 7 923 8 l227 1 0 465 c0 438 1 468 19 503 22 43 53 74 96
96 26 14 125 16 832 16 541 0 811 -3 830 -11z"/>
<path d="M30010 60515 l0 -365 643 2 642 3 3 363 2 362 -645 0 -645 0 0 -365z"/>
<path d="M29080 59033 l0 -386 272 6 c149 4 437 7 640 7 l368 0 0 380 0 380
-640 0 -640 0 0 -387z"/>
<path d="M31100 59045 l0 -375 69 0 69 0 153 223 c164 238 225 306 318 356
120 64 124 64 411 70 l265 6 3 48 3 47 -645 0 -646 0 0 -375z"/>
<path d="M31904 58997 c-82 -31 -90 -41 -397 -487 -112 -162 -50 -147 -629
-154 -588 -7 -3161 -26 -3573 -26 -159 0 -296 -4 -304 -9 -10 -7 76 -138 360
-552 206 -299 392 -561 414 -582 21 -22 61 -50 87 -63 113 -57 -20 -54 2268
-54 1907 0 2111 2 2161 16 66 20 130 65 163 115 106 159 1080 1768 1080 1784
1 20 -6 20 -799 22 -593 1 -808 -2 -831 -10z"/>
<path d="M46620 62474 c-658 -46 -1204 -190 -1765 -464 -1337 -653 -2275
-1904 -2525 -3365 -49 -290 -63 -461 -64 -775 0 -290 9 -437 45 -679 164
-1126 740 -2154 1614 -2883 697 -581 1518 -930 2455 -1045 114 -14 221 -18
505 -18 385 0 490 8 795 61 1577 270 2913 1360 3503 2854 242 612 354 1289
318 1913 -6 116 -14 232 -17 257 -121 1089 -579 2047 -1340 2805 -746 744
-1714 1204 -2774 1320 -138 15 -628 27 -750 19z m1336 -3099 c62 -18 126 -72
153 -128 21 -43 21 -46 21 -1307 0 -1260 0 -1264 -21 -1307 -26 -54 -96 -116
-147 -131 -29 -9 -392 -12 -1427 -12 -1259 0 -1390 1 -1421 16 -42 20 -70 59
-89 122 -43 144 -185 276 -340 317 -242 63 -513 -87 -581 -323 -19 -64 -69
-118 -119 -128 -63 -11 -257 0 -290 18 -43 23 -93 75 -118 122 l-22 41 -3
1230 c-2 878 0 1245 8 1282 19 89 99 173 182 193 18 4 963 8 2099 9 1795 1
2072 -1 2115 -14z m1209 -533 c307 -68 545 -218 720 -450 109 -145 180 -308
216 -496 18 -91 20 -146 19 -645 0 -342 -4 -560 -11 -583 -15 -57 -68 -119
-128 -150 -49 -26 -62 -28 -163 -28 -88 0 -116 4 -147 19 -39 20 -41 23 -115
182 -94 199 -332 311 -545 254 -163 -43 -302 -170 -346 -317 -30 -102 -80
-138 -189 -138 -108 0 -182 42 -232 132 l-29 53 0 1005 c0 961 1 1007 19 1040
37 70 101 123 171 141 17 4 174 7 350 5 276 -3 332 -6 410 -24z m-4423 -2165
c89 -44 161 -116 205 -204 33 -67 38 -86 41 -167 3 -74 0 -103 -18 -155 -38
-114 -118 -204 -229 -258 -52 -26 -65 -28 -176 -28 -111 0 -124 2 -177 28 -89
44 -161 116 -205 205 -37 74 -38 79 -38 186 0 104 2 115 31 177 52 109 138
190 247 230 42 15 73 19 157 17 92 -3 112 -7 162 -31z m4570 -5 c79 -39 164
-125 202 -206 51 -107 51 -254 1 -364 -34 -75 -122 -163 -203 -203 -65 -33
-71 -34 -187 -34 -111 0 -124 2 -177 28 -89 44 -161 116 -205 205 -37 74 -38
79 -38 186 0 104 2 115 31 177 52 109 138 190 247 230 42 15 73 19 157 17 96
-3 112 -6 172 -36z"/>
<path d="M43875 59058 c-3 -7 -4 -496 -3 -1086 l3 -1072 55 72 c68 88 174 174
283 228 127 62 189 75 357 75 124 0 156 -3 220 -23 102 -32 214 -92 291 -156
68 -55 162 -172 198 -243 l21 -43 1255 0 1255 0 0 1130 0 1130 -1965 0 c-1567
0 -1967 -2 -1970 -12z"/>
<path d="M48538 58544 c-5 -4 -8 -346 -8 -760 l0 -754 79 64 c88 72 213 137
311 163 48 13 103 18 210 18 124 0 156 -3 220 -23 158 -50 312 -152 401 -266
l44 -56 3 402 c3 442 -1 498 -50 638 -46 129 -100 213 -202 316 -125 125 -240
189 -421 236 -67 17 -122 21 -330 25 -137 3 -253 2 -257 -3z"/>
<path d="M44494 56356 c-88 -88 13 -220 125 -162 31 17 51 54 51 97 0 46 -56
99 -105 99 -29 0 -45 -8 -71 -34z"/>
<path d="M49054 56356 c-26 -26 -34 -42 -34 -71 0 -49 53 -105 100 -105 62 0
109 43 110 98 0 66 -42 111 -103 112 -31 0 -46 -7 -73 -34z"/>
<path d="M13765 53070 c-1052 -12 -1677 -27 -1814 -45 -509 -65 -974 -260
-1374 -577 -122 -98 -327 -301 -421 -418 -321 -402 -517 -866 -588 -1390 -20
-144 -19 -25370 0 -25545 86 -769 374 -1443 871 -2040 41 -49 142 -158 225
-240 592 -590 1367 -967 2192 -1066 l101 -12 17 -175 c49 -517 101 -1218 126
-1702 15 -283 23 -1110 13 -1307 l-8 -162 60 -10 c188 -31 418 -57 730 -83
217 -18 1155 -18 1360 0 599 51 1085 141 1530 282 136 44 384 137 399 151 5 4
4 168 -3 381 -24 769 -71 2415 -71 2467 l0 54 283 -7 c440 -10 2037 -43 3417
-71 690 -13 1368 -27 1505 -30 251 -6 1401 -27 3420 -65 1501 -28 3639 -66
5050 -90 1847 -31 2207 -38 2211 -43 6 -6 -878 -7940 -885 -7949 -3 -4 -738
-30 -1633 -58 -1689 -52 -1715 -54 -1858 -101 -225 -74 -412 -235 -483 -416
-31 -79 -288 -1114 -294 -1182 -11 -127 36 -267 129 -386 95 -123 285 -238
473 -287 l90 -23 10140 0 10140 0 99 27 c240 67 429 203 520 378 54 103 69
168 64 279 -5 89 -23 159 -247 941 -184 642 -251 862 -279 915 -79 151 -259
291 -458 355 -161 52 -219 55 -709 42 -242 -7 -483 -15 -535 -17 -52 -2 -180
-7 -285 -10 -104 -3 -327 -10 -495 -15 -168 -5 -393 -12 -500 -15 -107 -3
-241 -8 -297 -11 -101 -6 -102 -6 -107 18 -18 79 -1237 7341 -1233 7345 3 2
554 -2 1224 -11 1392 -18 3326 -41 4733 -56 531 -5 1191 -12 1468 -16 276 -3
502 -3 502 0 0 4 -14 34 -30 67 -43 84 -86 219 -105 323 -13 75 -15 218 -15
956 l0 868 -152 6 c-84 3 -2574 47 -5533 96 -6269 106 -9276 157 -9710 165
-170 3 -566 10 -880 15 -313 5 -709 12 -880 15 -369 6 -1323 23 -1765 30 -173
3 -441 7 -595 10 -154 3 -680 12 -1170 20 -489 8 -1009 17 -1155 20 -146 3
-407 7 -580 10 -173 3 -443 7 -600 10 -157 3 -427 7 -600 10 -173 3 -432 7
-575 10 -143 3 -402 7 -575 10 -173 3 -439 7 -590 10 -151 3 -414 7 -585 10
-309 5 -635 11 -1175 20 -577 10 -863 15 -1185 20 -181 3 -438 7 -570 10 -132
3 -395 7 -585 10 -190 3 -428 7 -530 10 -102 3 -347 7 -545 10 -198 3 -463 7
-590 10 -126 3 -381 7 -565 10 -184 3 -468 8 -630 10 -162 3 -540 10 -840 15
-300 5 -727 12 -950 16 -223 4 -533 9 -690 13 l-285 6 -3 78 -3 78 198 -5
c197 -6 326 -8 1433 -26 322 -5 713 -12 870 -15 157 -3 557 -10 890 -15 333
-5 727 -12 875 -15 149 -3 419 -7 600 -10 683 -10 1008 -15 1280 -20 154 -3
424 -7 600 -10 176 -3 428 -7 560 -10 132 -3 389 -7 570 -10 182 -3 452 -7
600 -10 285 -5 682 -12 1180 -20 165 -3 428 -7 585 -10 525 -9 883 -15 1180
-20 577 -10 889 -15 1165 -20 154 -3 424 -7 600 -10 176 -3 442 -7 590 -10
149 -3 419 -7 600 -10 182 -3 447 -7 590 -10 143 -3 406 -7 585 -10 179 -3
444 -7 590 -10 146 -3 400 -7 565 -10 729 -12 926 -15 1180 -20 413 -8 798
-14 2075 -35 646 -11 1303 -22 1460 -25 157 -3 3197 -55 6755 -115 3559 -60
6570 -111 6693 -115 l222 -6 -2 368 -3 368 -180 3 c-99 1 -7994 99 -17544 217
-9550 118 -17366 217 -17369 220 -6 6 -22 627 -41 1540 -8 367 -15 539 -31
685 -54 510 -171 1110 -332 1697 l-30 112 -44 -25 -43 -25 80 238 c166 496
500 1536 495 1541 -2 1 -66 -15 -143 -37 -420 -118 -824 -178 -1271 -188
l-263 -6 -112 -101 c-249 -225 -514 -442 -787 -646 -173 -128 -487 -340 -603
-406 l-68 -39 5 -65 c3 -36 10 -185 17 -332 l12 -267 -74 -78 c-235 -247 -544
-643 -745 -958 -227 -355 -389 -719 -450 -1009 -47 -224 -44 -583 10 -1216 12
-146 21 -267 20 -269 -5 -6 -107 30 -213 76 -269 116 -483 264 -696 484 -275
283 -454 604 -550 984 -66 260 -65 236 -65 1693 l0 1316 -59 175 c-130 384
-187 696 -198 1082 -13 444 51 865 201 1325 l56 171 0 1771 c0 1605 1 1770 16
1776 9 3 46 6 83 6 157 0 428 50 626 115 412 135 759 360 1136 735 228 227
388 417 759 900 248 323 336 434 457 571 92 106 342 353 350 346 2 -2 -10 -36
-26 -74 -136 -319 -147 -694 -30 -1046 99 -297 257 -425 460 -373 35 9 86 30
114 45 l50 28 7 163 c7 157 7 163 -16 209 -87 170 -121 377 -78 473 34 78 124
128 229 128 70 0 111 -18 154 -68 43 -51 66 -114 80 -222 7 -59 20 -106 44
-155 18 -38 36 -78 39 -87 4 -13 16 -18 44 -18 l39 0 13 58 c37 168 127 386
215 524 66 102 193 224 280 270 108 56 180 71 310 65 120 -6 198 -26 325 -83
l76 -35 75 -150 74 -150 65 49 c204 154 332 358 347 554 16 203 -84 418 -291
624 -196 195 -438 323 -736 389 -100 22 -373 31 -482 16 -311 -44 -582 -178
-815 -404 l-82 -80 -39 35 c-52 47 -187 127 -334 198 -805 388 -1577 235
-2265 -448 -49 -48 -199 -214 -333 -368 -384 -438 -858 -959 -923 -1013 -16
-13 -17 434 -15 6640 l3 6654 23 107 c29 137 90 315 147 429 258 512 757 858
1328 920 96 10 3536 -57 24742 -484 13547 -273 24702 -501 24790 -507 301 -19
534 -95 773 -253 367 -243 604 -613 678 -1057 21 -123 21 198 -21 -11890 -18
-5360 -33 -9746 -32 -9747 1 -1 45 -6 97 -12 232 -26 412 -108 572 -260 152
-144 251 -317 289 -506 11 -59 30 -283 53 -645 195 -3033 286 -4460 288 -4485
3 -28 8 -23 66 64 241 361 394 811 432 1267 5 71 19 473 30 894 11 421 22 830
25 910 16 430 65 2929 85 4355 41 2948 41 6654 0 9040 -70 4048 -235 7195
-501 9580 -67 600 -168 1343 -215 1580 -81 406 -262 809 -521 1153 -108 144
-331 375 -473 489 -486 392 -1054 609 -1675 638 -350 16 -3616 106 -6355 175
-11880 298 -25233 552 -33655 640 -3063 32 -6899 46 -8320 30z m-1851 -28935
c428 -8 782 -18 786 -22 4 -4 10 -39 13 -77 l6 -69 -482 8 c-265 4 -637 10
-825 14 l-344 6 -19 24 c-41 50 -5 131 58 131 15 0 379 -7 807 -15z"/>
<path d="M35604 50790 c-77 -14 -1610 -398 -1684 -422 -393 -127 -710 -488
-789 -898 -12 -60 -45 -380 -76 -740 -31 -349 -60 -662 -66 -695 -36 -219
-168 -449 -339 -593 -37 -31 -128 -93 -201 -137 -739 -441 -1285 -843 -1874
-1379 -71 -65 -156 -137 -189 -159 -175 -119 -426 -188 -621 -172 -84 7 -149
20 -925 185 -267 57 -519 105 -575 110 -253 22 -519 -43 -742 -182 -107 -66
-264 -214 -330 -310 -63 -91 -862 -1416 -903 -1498 -127 -251 -155 -586 -74
-869 31 -105 96 -246 155 -332 24 -35 223 -279 444 -542 491 -588 485 -579
545 -702 58 -119 85 -212 100 -343 15 -137 2 -237 -69 -517 -185 -741 -283
-1406 -321 -2175 -5 -108 -16 -231 -25 -274 -48 -230 -173 -441 -343 -579 -37
-30 -312 -213 -612 -407 -300 -194 -573 -375 -606 -401 -312 -247 -486 -661
-445 -1059 15 -140 404 -1711 455 -1832 67 -163 147 -282 275 -408 173 -170
397 -286 627 -324 49 -9 375 -40 724 -71 349 -30 660 -60 690 -66 227 -42 446
-169 589 -342 33 -39 122 -175 198 -302 366 -611 784 -1180 1239 -1683 71 -78
157 -177 192 -220 152 -187 236 -465 211 -702 -4 -47 -69 -372 -144 -723 -75
-351 -141 -678 -146 -725 -25 -210 22 -464 122 -665 74 -147 210 -313 340
-413 92 -70 1507 -917 1592 -953 261 -108 579 -120 849 -31 99 33 244 108 327
170 42 31 292 238 556 460 264 221 514 425 555 452 177 114 423 173 629 150
53 -6 202 -38 331 -71 713 -181 1396 -281 2190 -321 203 -10 285 -24 409 -69
160 -58 312 -164 413 -286 29 -35 172 -248 318 -472 434 -670 485 -745 551
-817 255 -278 618 -417 1000 -385 91 8 257 46 933 215 474 118 855 219 902
237 298 120 542 360 665 656 66 159 75 217 139 943 33 374 67 710 75 746 38
181 119 338 246 476 85 93 145 136 380 276 112 67 296 183 408 256 l203 134
1518 0 1517 0 44 23 c29 16 54 40 74 72 29 47 30 52 34 195 4 195 -7 248 -64
306 -26 25 -59 47 -82 53 -27 7 -156 5 -435 -7 l-398 -17 0 30 c1 60 37 556
41 559 2 2 254 -49 559 -115 306 -65 602 -123 660 -129 412 -40 826 144 1077
480 23 30 161 255 308 500 147 245 269 447 271 449 2 2 210 10 463 17 422 13
465 16 516 35 64 24 141 94 170 154 28 60 1765 7888 1765 7955 0 73 -14 118
-53 176 -42 63 -105 110 -175 130 -53 16 -81 15 -511 -10 -251 -14 -490 -29
-532 -32 l-76 -6 8 48 c11 70 11 288 -1 361 -6 35 -102 431 -214 880 -224 900
-232 925 -349 1101 -167 251 -412 423 -706 498 -77 20 -227 36 -771 84 -745
66 -815 77 -967 149 -111 53 -184 103 -264 179 -94 88 -130 137 -279 387 -382
636 -780 1173 -1292 1743 -211 235 -272 336 -330 550 -16 61 -21 107 -21 222
l0 145 142 660 c143 656 143 661 148 815 4 118 1 176 -11 245 -56 301 -219
573 -449 749 -96 72 -1489 909 -1576 946 -339 144 -721 130 -1043 -38 -118
-61 -153 -88 -683 -533 -559 -468 -543 -455 -644 -508 -174 -90 -367 -132
-537 -116 -73 7 -78 9 -130 56 -62 56 -97 63 -140 26 l-28 -24 -94 24 c-53 13
-108 31 -123 39 -15 8 -43 14 -62 14 -18 0 -95 13 -170 30 -548 120 -1160 197
-1812 230 -145 7 -213 15 -287 34 -219 56 -424 187 -552 355 -23 31 -197 295
-386 586 -189 292 -364 557 -389 590 -127 169 -322 314 -531 392 -142 54 -205
65 -395 68 -99 2 -203 0 -231 -5z m5296 -4425 c1591 -568 2972 -1552 4015
-2860 746 -935 1313 -2050 1629 -3205 76 -277 176 -714 165 -724 -3 -3 -3004
-181 -3744 -222 -55 -3 -780 -45 -1612 -94 l-1511 -88 -62 -28 c-74 -33 -141
-103 -168 -177 -11 -29 -27 -115 -36 -192 -74 -608 -445 -3388 -871 -6532 -58
-425 -105 -799 -105 -831 0 -32 7 -79 16 -105 23 -67 96 -144 169 -178 57 -27
67 -29 195 -29 74 0 270 5 435 10 579 20 3670 108 3673 105 2 -2 -58 -178
-133 -392 l-137 -389 -76 -48 -75 -49 -780 42 -780 41 -661 -145 c-363 -80
-769 -170 -901 -200 -132 -30 -872 -194 -1645 -365 -773 -170 -1424 -317
-1446 -325 -93 -35 -155 -130 -156 -241 l-1 -64 -36 4 c-189 23 -448 25 -804
7 -776 -38 -1680 10 -2372 125 -1074 180 -1885 505 -2534 1015 -123 98 -391
360 -477 469 -436 549 -657 1131 -745 1965 -15 135 -19 716 -6 890 23 334 103
834 179 1130 11 44 20 89 20 100 0 11 -25 92 -56 180 -218 612 -382 1336 -455
2010 -40 362 -46 493 -46 955 0 475 6 598 50 995 247 2224 1353 4319 3050
5779 785 676 1685 1212 2658 1585 87 34 160 61 161 61 2 0 6 -69 9 -152 7
-174 28 -291 86 -466 74 -225 193 -461 337 -669 93 -135 90 -154 -41 -217
-131 -64 -185 -133 -185 -238 0 -119 117 -292 320 -473 337 -300 664 -474 925
-492 70 -5 83 -3 104 14 l25 20 46 -23 c193 -97 443 -64 597 80 l55 51 117
-115 c394 -393 844 -615 1293 -637 l119 -6 38 -39 39 -38 223 0 c202 0 227 2
255 19 32 20 64 74 64 110 0 37 -27 87 -58 110 -29 20 -41 21 -252 21 -245 0
-266 -4 -296 -61 l-16 -31 -91 6 c-477 35 -883 240 -1280 644 l-98 101 16 31
c35 67 45 118 60 284 9 94 23 223 31 286 42 300 -18 760 -130 995 l-45 95 23
68 c48 139 111 224 200 266 86 41 121 43 1046 76 1184 42 1869 168 2250 414
30 20 60 36 65 36 6 0 80 -25 165 -55z m9798 -7007 l3 -36 -53 -6 c-29 -3
-2337 -143 -5128 -311 -2791 -168 -5097 -308 -5125 -311 -178 -22 -336 -148
-395 -316 -14 -40 -82 -548 -235 -1760 -119 -936 -243 -1912 -276 -2168 -32
-256 -59 -471 -59 -477 0 -17 -69 -17 -76 0 -9 24 545 4352 566 4420 66 213
266 366 500 384 168 12 10237 621 10255 620 15 -2 21 -10 23 -39z m-11430
-6633 c3 -3 -105 -876 -114 -913 -4 -20 -9 -22 -42 -16 -20 4 -38 7 -38 8 -1
0 25 206 57 456 32 250 58 460 59 467 0 8 12 10 38 6 20 -3 38 -7 40 -8z"/>
<path d="M34032 36143 c-49 -65 -149 -203 -222 -308 -640 -910 -1063 -1746
-1225 -2418 -30 -124 -65 -309 -65 -344 0 -7 21 -14 48 -18 26 -3 61 -8 78
-11 l31 -4 17 109 c65 424 274 969 596 1556 226 412 596 978 897 1373 52 68
62 87 52 98 -14 17 -104 84 -113 84 -3 0 -45 -53 -94 -117z"/>
<path d="M19710 49969 c-1459 -111 -2766 -924 -3513 -2187 -319 -538 -518
-1141 -594 -1797 -24 -211 -24 -719 0 -933 95 -840 384 -1570 886 -2236 567
-755 1409 -1332 2316 -1589 437 -124 775 -171 1240 -171 412 0 714 37 1089
131 1175 294 2181 1057 2787 2113 689 1202 777 2669 237 3955 -297 708 -798
1351 -1419 1822 -612 465 -1366 773 -2119 867 -280 35 -646 45 -910 25z
m-1017 -1895 c48 -16 110 -74 127 -119 5 -13 11 -49 15 -82 3 -32 8 -76 10
-98 2 -22 9 -98 15 -170 5 -71 12 -148 14 -170 3 -22 10 -101 16 -175 6 -74
13 -146 15 -160 2 -14 4 -44 4 -67 1 -41 2 -42 27 -33 16 6 688 10 1849 10
l1823 0 53 -28 c39 -20 62 -41 84 -77 l30 -48 3 -1636 c1 -1133 -1 -1652 -8
-1688 -8 -37 -23 -65 -51 -97 -73 -83 176 -77 -2724 -74 l-2580 3 -48 28 c-57
34 -98 92 -104 149 -4 37 396 4268 413 4368 13 77 75 147 152 170 15 5 205 9
423 9 336 1 402 -1 442 -15z"/>
<path d="M18076 47628 c-7 -39 -366 -3795 -366 -3820 0 -17 32 -18 525 -18
l525 0 0 27 c0 30 -236 2743 -265 3043 -2 25 -9 106 -15 180 -6 74 -17 200
-25 280 -8 80 -17 186 -21 235 -3 50 -8 93 -11 98 -2 4 -80 7 -173 7 l-169 0
-5 -32z"/>
<path d="M19210 46280 l0 -300 395 0 395 0 0 300 0 300 -395 0 -395 0 0 -300z"/>
<path d="M20330 46280 l0 -300 450 0 450 0 0 300 0 300 -450 0 -450 0 0 -300z"/>
<path d="M21570 46280 l0 -300 390 0 390 0 0 300 0 300 -390 0 -390 0 0 -300z"/>
<path d="M19210 45245 l0 -405 395 0 395 0 -2 403 -3 402 -392 3 -393 2 0
-405z"/>
<path d="M20330 45245 l0 -405 450 0 450 0 0 405 0 405 -450 0 -450 0 0 -405z"/>
<path d="M21567 45644 c-4 -4 -7 -187 -7 -406 l2 -398 394 0 394 0 0 400 c0
220 -1 400 -2 400 -41 6 -775 10 -781 4z"/>
<path d="M19210 44150 l0 -360 395 0 395 0 0 360 0 360 -395 0 -395 0 0 -360z"/>
<path d="M20330 44150 l0 -360 450 0 450 0 0 360 0 360 -450 0 -450 0 0 -360z"/>
<path d="M21560 44150 l0 -360 395 0 395 0 0 360 0 360 -395 0 -395 0 0 -360z"/>
<path d="M56105 49094 c-22 -2 -96 -9 -165 -14 -1106 -94 -2176 -639 -2921
-1488 -855 -974 -1238 -2240 -1069 -3530 254 -1933 1770 -3489 3700 -3796 254
-40 392 -50 710 -50 261 1 347 4 500 23 1020 121 1914 554 2635 1275 365 365
631 735 850 1181 239 488 378 978 437 1545 19 185 16 686 -5 878 -102 908
-446 1716 -1026 2407 -111 132 -359 382 -495 498 -694 595 -1518 952 -2427
1052 -135 15 -632 28 -724 19z m490 -1624 c787 -58 1512 -395 2050 -951 141
-146 224 -249 340 -424 255 -384 413 -831 454 -1290 12 -137 5 -425 -14 -569
-82 -618 -353 -1163 -801 -1611 -510 -510 -1176 -820 -1923 -895 -133 -13
-499 -13 -632 0 -902 90 -1699 529 -2225 1227 -156 207 -310 488 -398 726
-224 608 -215 1327 25 1929 280 703 843 1276 1569 1596 478 211 1016 301 1555
262z"/>
<path d="M56222 47063 c-15 -6 -90 -103 -124 -163 -14 -25 -39 -78 -56 -117
l-31 -73 324 0 c216 0 325 3 325 10 0 38 -129 249 -190 310 l-40 40 -98 -1
c-53 -1 -103 -4 -110 -6z"/>
<path d="M55960 47043 c-201 -32 -247 -45 -361 -104 -96 -50 -329 -209 -329
-225 0 -2 128 -4 284 -4 l284 0 27 68 c14 37 51 113 80 170 30 56 51 101 47
101 -4 -1 -18 -4 -32 -6z"/>
<path d="M56690 47004 c37 -52 122 -214 138 -261 l11 -33 235 0 c130 0 236 2
236 4 0 6 -172 133 -226 168 -114 73 -296 151 -377 161 l-48 7 31 -46z"/>
<path d="M57390 46867 c0 -2 38 -38 85 -81 l85 -77 80 -2 c44 -1 80 1 80 5 0
8 -200 106 -277 137 -29 11 -53 19 -53 18z"/>
<path d="M55018 46739 c-32 -16 -58 -31 -58 -34 0 -3 11 -5 25 -5 15 0 41 14
63 35 20 19 35 34 32 34 -3 0 -31 -13 -62 -30z"/>
<path d="M54633 46488 c-248 -195 -457 -431 -612 -689 -28 -47 -51 -91 -51
-98 0 -12 216 -15 355 -5 l80 7 34 88 c76 202 220 467 345 638 33 45 67 92 75
102 13 18 10 19 -67 19 l-81 0 -78 -62z"/>
<path d="M55061 46504 c-159 -181 -324 -455 -425 -708 -20 -49 -36 -90 -36
-92 0 -2 229 -4 510 -4 l510 0 4 23 c3 12 10 60 16 107 20 157 61 374 101 539
21 90 37 166 35 168 -2 2 -154 7 -338 10 l-334 6 -43 -49z"/>
<path d="M56938 46543 c-16 -2 -28 -7 -28 -11 0 -4 15 -59 34 -122 43 -147 98
-396 127 -572 l23 -138 443 0 c244 0 443 1 443 3 0 14 -83 203 -132 300 -93
187 -195 342 -320 489 l-48 56 -258 0 c-141 -1 -269 -3 -284 -5z"/>
<path d="M57774 46453 c138 -185 279 -442 361 -655 l37 -98 117 -2 c245 -4
459 -4 456 2 -195 334 -390 560 -675 783 l-84 67 -143 0 -142 0 73 -97z"/>
<path d="M55917 46393 c-52 -209 -117 -583 -117 -668 l0 -25 560 0 561 0 -5
33 c-46 278 -98 520 -149 692 l-33 110 -391 3 -390 2 -36 -147z"/>
<path d="M53885 45533 c-66 -153 -132 -376 -159 -538 -17 -100 -35 -305 -26
-310 3 -1 120 0 261 3 l257 5 6 96 c18 249 67 547 122 733 4 15 -14 17 -204
20 -156 2 -213 6 -225 16 -14 12 -18 9 -32 -25z"/>
<path d="M58435 45543 l-211 -3 29 -113 c50 -198 94 -497 98 -674 l2 -63 216
-1 c368 -3 421 -6 444 -26 20 -18 20 -18 14 87 -12 211 -71 466 -159 687 l-44
108 -89 0 c-50 1 -185 -1 -300 -2z"/>
<path d="M54521 45458 c-56 -216 -95 -450 -107 -659 l-7 -109 574 2 574 3 7
210 c4 116 14 297 23 402 8 106 15 202 15 213 0 20 -4 20 -528 20 l-529 0 -22
-82z"/>
<path d="M55776 45498 c-13 -91 -26 -334 -33 -565 l-6 -243 628 0 628 0 -6
213 c-6 183 -30 520 -42 582 -2 11 -4 28 -4 38 -1 16 -36 17 -580 17 l-580 0
-5 -42z"/>
<path d="M57124 45468 c18 -194 35 -440 42 -600 l7 -178 498 0 499 0 0 50 c0
152 -56 511 -111 718 l-22 82 -460 0 -460 0 7 -72z"/>
<path d="M53703 44433 c8 -137 37 -297 82 -452 43 -149 106 -306 123 -305 6 1
106 2 221 3 l208 1 -28 116 c-46 189 -89 512 -89 675 l0 56 -182 6 c-99 4
-217 7 -261 7 l-80 0 6 -107z"/>
<path d="M58463 44533 c-72 -3 -103 -7 -104 -16 -1 -7 -3 -32 -4 -57 -17 -286
-56 -551 -111 -757 l-6 -23 291 0 c288 0 292 0 299 -21 7 -18 12 -13 31 37
102 260 155 490 169 731 l7 111 -235 -1 c-129 -1 -281 -3 -337 -4z"/>
<path d="M54413 44393 c10 -207 54 -485 107 -675 l11 -38 536 0 536 0 -7 68
c-19 198 -27 330 -33 545 l-6 237 -575 0 -575 0 6 -137z"/>
<path d="M55743 44283 c7 -235 20 -457 32 -550 l6 -43 448 0 c246 0 509 -3
583 -6 l136 -7 6 59 c17 151 27 319 33 547 l6 247 -628 0 -628 0 6 -247z"/>
<path d="M57170 44423 c-1 -141 -8 -285 -25 -520 -8 -106 -15 -199 -15 -208 0
-13 54 -15 460 -15 l459 0 10 38 c51 194 77 333 96 516 8 80 15 179 15 221 l0
75 -500 0 -500 0 0 -107z"/>
<path d="M53970 43524 c0 -13 110 -192 165 -269 130 -182 311 -373 482 -511
89 -72 93 -74 147 -74 31 0 56 2 56 5 0 3 -44 72 -98 154 -112 169 -219 377
-291 566 l-49 130 -206 3 c-113 1 -206 0 -206 -4z"/>
<path d="M58160 43438 c-85 -238 -228 -510 -365 -696 -25 -34 -45 -64 -45 -67
0 -3 67 -5 150 -5 l149 0 98 79 c232 187 488 495 604 724 l29 57 -293 0 -294
0 -33 -92z"/>
<path d="M54594 43483 c102 -285 296 -629 439 -780 l31 -33 358 0 c245 0 358
3 358 11 0 5 -13 63 -29 127 -39 153 -74 333 -101 507 -11 77 -23 155 -26 173
l-5 32 -519 0 -519 0 13 -37z"/>
<path d="M55800 43503 c0 -110 127 -750 162 -816 8 -16 35 -17 406 -15 l397 3
22 77 c47 165 115 518 138 711 l6 57 -565 0 c-532 0 -566 -1 -566 -17z"/>
<path d="M57106 43493 c-3 -16 -13 -80 -21 -143 -21 -147 -78 -437 -110 -558
-14 -52 -25 -100 -25 -108 0 -12 46 -14 283 -14 l283 0 31 33 c141 149 338
500 439 780 l13 37 -444 0 -443 0 -6 -27z"/>
<path d="M55246 42479 c37 -39 191 -155 269 -202 34 -20 96 -45 145 -58 87
-22 333 -70 337 -65 1 1 -18 40 -42 86 -25 47 -61 127 -81 178 l-36 92 -311 0
-311 0 30 -31z"/>
<path d="M56020 42507 c0 -2 12 -32 26 -68 41 -99 82 -178 131 -247 l44 -63
147 3 146 3 52 77 c41 62 144 271 144 293 0 3 -155 5 -345 5 -190 0 -345 -1
-345 -3z"/>
<path d="M56883 42493 c-29 -81 -70 -177 -105 -246 -24 -45 -45 -86 -47 -91
-2 -5 19 -6 50 -2 102 14 325 136 484 266 119 98 131 90 -139 90 -216 0 -237
-2 -243 -17z"/>
<path d="M57509 42415 c-55 -54 -87 -93 -75 -89 30 9 321 149 348 168 21 15
16 16 -77 16 l-100 0 -96 -95z"/>
<path d="M17425 37969 c-11 -6 -100 -91 -197 -188 -198 -196 -187 -175 -164
-305 l12 -69 129 136 c137 142 166 162 208 134 12 -8 101 -125 197 -260 96
-135 177 -244 179 -242 5 5 -29 145 -41 168 -5 9 -40 56 -79 104 -71 89 -119
175 -119 213 0 35 36 43 115 26 39 -8 79 -18 90 -22 15 -6 12 3 -16 42 -20 27
-66 93 -104 148 -49 71 -77 102 -101 112 -40 17 -81 18 -109 3z"/>
<path d="M17066 36775 l-7 -76 199 -247 c109 -136 375 -467 592 -737 217 -269
399 -493 404 -498 6 -4 19 -6 28 -5 15 3 617 488 675 544 32 32 45 89 29 133
-10 29 -313 479 -348 516 -6 7 -13 4 -19 -8 -24 -41 -118 -61 -165 -34 -11 7
-76 69 -144 140 -67 70 -125 126 -127 123 -2 -2 111 -165 253 -362 141 -197
259 -366 261 -375 3 -12 -63 -79 -217 -220 -181 -167 -227 -204 -251 -204 -26
0 -81 66 -584 690 -306 380 -560 691 -564 693 -5 1 -11 -32 -15 -73z"/>
<path d="M15986 35163 c-3 -3 -6 -59 -6 -124 0 -184 -46 -294 -154 -369 -61
-41 -109 -57 -244 -81 -313 -53 -663 3 -803 129 -90 81 -134 210 -110 323 6
28 9 54 7 56 -7 8 -237 -43 -396 -86 -426 -117 -843 -295 -1245 -532 -185
-108 -565 -371 -565 -391 0 -4 137 -176 304 -382 167 -206 322 -398 344 -428
139 -186 175 -426 98 -650 -14 -38 -54 -118 -90 -177 l-66 -108 40 -119 c178
-527 382 -1259 505 -1814 31 -140 58 -257 60 -258 6 -7 74 18 265 95 262 106
413 175 750 345 407 204 394 196 431 271 45 88 104 172 168 241 114 120 829
722 843 708 17 -17 40 -156 33 -202 -14 -98 -56 -160 -167 -246 -70 -55 -134
-148 -144 -210 -4 -28 -2 -50 4 -56 6 -6 295 -48 643 -94 559 -73 660 -90 731
-119 19 -8 27 17 153 455 157 544 238 898 238 1035 0 137 -101 468 -318 1050
-135 363 -469 1196 -639 1596 -14 34 -17 36 -128 62 -122 28 -323 62 -428 72
-36 3 -74 8 -86 10 -12 3 -24 2 -28 -2z"/>
<path d="M13573 11581 c-136 -91 -251 -241 -304 -394 -32 -93 -53 -240 -45
-307 3 -25 54 -350 114 -722 l107 -678 85 0 85 0 -3 49 c-2 27 1 142 7 254 26
494 108 737 250 737 144 0 437 -268 826 -755 138 -173 181 -214 265 -253 52
-24 68 -26 286 -33 127 -4 334 -4 461 0 l230 6 36 28 c122 93 91 292 -54 337
-26 8 -102 15 -184 16 l-139 3 -286 199 c-415 290 -862 594 -1045 712 -88 56
-183 118 -212 137 -170 114 -312 337 -381 599 -15 57 -30 104 -33 104 -4 0
-33 -18 -66 -39z"/>
<path d="M15520 11583 c-120 -78 -231 -213 -290 -351 -68 -161 -75 -303 -27
-587 l32 -190 165 -267 c90 -147 165 -266 166 -265 2 1 9 56 18 123 41 315
118 474 229 474 147 0 427 -255 823 -751 151 -188 173 -210 264 -253 l65 -31
448 -3 449 -3 42 25 c56 33 86 88 86 160 0 70 -18 114 -59 149 -47 39 -91 49
-249 53 l-143 4 -147 104 c-477 334 -1067 735 -1282 870 -69 44 -148 99 -177
123 -139 117 -261 330 -318 557 -13 50 -27 91 -31 93 -5 1 -34 -14 -64 -34z"/>
</g>
</svg>
